<svg xmlns="http://www.w3.org/2000/svg" width="18" height="24" viewBox="0 0 18 24">
  <path id="hook" d="M113.869,4.693l-1.8-3.75A1.829,1.829,0,0,0,110.4,0H99.6a1.829,1.829,0,0,0-1.671.943l-1.8,3.75a1.268,1.268,0,0,0,0,1.114l1.8,3.75A1.829,1.829,0,0,0,99.6,10.5h.9a1.671,1.671,0,0,0,1.8,1.5h.9v.576a4.57,4.57,0,0,0,2.983,4.15A2.241,2.241,0,0,1,107.7,18.75,2.573,2.573,0,0,1,105,21a2.509,2.509,0,0,1-2.7-2.25,1.83,1.83,0,0,0-3.6,0c0,2.895,2.826,5.25,6.3,5.25,3.415,0,6.3-2.4,6.3-5.25a5.223,5.223,0,0,0-3.537-4.719,1.557,1.557,0,0,1-.963-1.455V12h.9a1.671,1.671,0,0,0,1.8-1.5h.9a1.829,1.829,0,0,0,1.671-.943l1.8-3.75A1.268,1.268,0,0,0,113.869,4.693ZM100.8,8.25H98.9l2.4-6h1.9Zm3.949,0h-1.9l2.4-6h1.9Zm3.949,0h-1.9l2.4-6h1.9Z" transform="translate(-95.998)"/>
</svg>
